<svg width="29" height="22" viewBox="0 0 29 22" fill="none" xmlns="http://www.w3.org/2000/svg">
<path d="M3.96786 7.79891C3.69338 7.79891 3.4633 7.70603 3.27763 7.52026C3.09195 7.33452 2.99911 7.10435 2.99911 6.82974C2.99911 6.55515 3.09195 6.32513 3.27763 6.13967C3.4633 5.95418 3.69338 5.86144 3.96786 5.86144H7.91739C8.47875 5.86144 8.96684 6.05022 9.38166 6.42777C9.79648 6.80535 10.037 7.26239 10.1032 7.79891H3.96786ZM6.57603 21.3365C4.92668 21.3365 3.52075 20.7553 2.35825 19.5928C1.19575 18.4303 0.614502 17.0244 0.614502 15.375C0.614502 13.7257 1.19575 12.3197 2.35825 11.1572C3.52075 9.99477 4.92668 9.41352 6.57603 9.41352C7.23641 9.41352 7.88133 9.52323 8.51078 9.74264C9.14023 9.96205 9.71577 10.2829 10.2374 10.7052H13.0344C13.8814 10.7052 14.6065 10.4036 15.2097 9.80038C15.8129 9.19719 16.1145 8.47207 16.1145 7.62502V5.15102L14.7583 3.79477L12.95 5.60311L11.9812 4.69894L16.5666 0.113525L17.4708 1.01769L15.6624 2.82602L17.0187 4.24686H24.4094C25.0546 4.24686 25.6053 4.47548 26.0615 4.93273C26.5177 5.38998 26.7459 5.93966 26.7459 6.58177V13.8995C27.2675 14.2804 27.6712 14.7523 27.9568 15.3154C28.2425 15.8784 28.3853 16.4862 28.3853 17.1386C28.3853 18.3044 27.9771 19.2955 27.1607 20.1119C26.3443 20.9283 25.3532 21.3365 24.1874 21.3365C23.0216 21.3365 22.0305 20.9283 21.2141 20.1119C20.3977 19.2955 19.9895 18.3044 19.9895 17.1386C19.9895 17.0061 19.9937 16.8737 20.0019 16.7412C20.0102 16.6087 20.0226 16.4762 20.0392 16.3437H12.4581C12.2229 17.7927 11.5526 18.9871 10.4473 19.9269C9.34192 20.8666 8.0515 21.3365 6.57603 21.3365ZM6.57603 19.3991C7.69381 19.3991 8.64393 19.0078 9.42638 18.2254C10.2089 17.4429 10.6001 16.4928 10.6001 15.375C10.6001 14.2572 10.2089 13.3071 9.42638 12.5247C8.64393 11.7422 7.69381 11.351 6.57603 11.351C5.45824 11.351 4.50812 11.7422 3.72567 12.5247C2.9432 13.3071 2.55197 14.2572 2.55197 15.375C2.55197 16.4928 2.9432 17.4429 3.72567 18.2254C4.50812 19.0078 5.45824 19.3991 6.57603 19.3991ZM24.1874 19.3991C24.8084 19.3991 25.3404 19.1776 25.7834 18.7346C26.2264 18.2916 26.4479 17.7596 26.4479 17.1386C26.4479 16.5176 26.2264 15.9856 25.7834 15.5426C25.3404 15.0997 24.8084 14.8782 24.1874 14.8782C23.5664 14.8782 23.0344 15.0997 22.5914 15.5426C22.1485 15.9856 21.927 16.5176 21.927 17.1386C21.927 17.7596 22.1485 18.2916 22.5914 18.7346C23.0344 19.1776 23.5664 19.3991 24.1874 19.3991ZM6.57309 17.0641C6.1031 17.0641 5.70457 16.8996 5.37752 16.5706C5.05047 16.2416 4.88695 15.8421 4.88695 15.3721C4.88695 14.9021 5.05145 14.5036 5.38046 14.1765C5.70945 13.8495 6.10894 13.6859 6.57893 13.6859C7.04895 13.6859 7.44748 13.8504 7.77453 14.1795C8.10158 14.5084 8.26511 14.9079 8.26511 15.378C8.26511 15.848 8.1006 16.2465 7.77159 16.5735C7.44261 16.9006 7.04311 17.0641 6.57309 17.0641ZM12.4631 14.4063H21.0228C21.4285 13.9261 21.899 13.5617 22.4342 13.3133C22.9695 13.0649 23.5539 12.9407 24.1874 12.9407H24.8084V6.58177C24.8084 6.46584 24.7712 6.37062 24.6966 6.29609C24.6221 6.22156 24.5269 6.18429 24.4109 6.18429H18.052V7.62502C18.052 9.01272 17.5626 10.1959 16.584 11.1746C15.6053 12.1533 14.4221 12.6426 13.0344 12.6426H11.847C11.9778 12.8612 12.1016 13.1361 12.2184 13.4673C12.3351 13.7985 12.4167 14.1115 12.4631 14.4063Z" fill="#3FC294"/>
</svg>
