<svg xmlns="http://www.w3.org/2000/svg" width="229" height="49" viewBox="0 0 229 49" fill="none">
  <path d="M0 45.3228L25.0796 48.9891V18.4477L0 14.6914V45.3228Z" fill="#448C2F"/>
  <path d="M31.4688 37.2051L52.7983 40.3215V14.3527L31.4688 11.1602V37.2051Z" fill="#448C2F"/>
  <path opacity="0.85" d="M25.0781 18.4563L52.7936 14.3438V40.3126L25.0781 48.9977V18.4563Z" fill="#FFB84C"/>
  <path d="M33.5726 0C28.4986 0.335506 25.7537 3.05415 24.6719 5.7797C25.455 6.86232 25.9192 8.03484 26.121 9.13475C28.648 4.65211 32.4545 1.04111 32.4545 1.04111C32.4545 1.04111 28.9668 4.83545 26.2341 10.1032C26.2623 10.7639 26.1856 11.3692 26.0201 11.8845C30.8964 11.2896 36.7535 5.62405 33.5767 0H33.5726Z" fill="#448C2F"/>
  <path d="M17.4074 3.19689C17.4074 3.19689 21.7266 7.89398 24.52 14.0922C19.5347 13.9781 12.9591 8.04272 16.2852 2.15234C25.6098 2.77147 27.0832 11.4324 24.7944 13.4039C22.4694 7.99429 17.4034 3.19343 17.4034 3.19343L17.4074 3.19689Z" fill="#448C2F"/>
  <path d="M62.0797 41.2483C60.0008 39.7091 59.0078 37.2014 59.0078 31.4944V24.6563C59.0078 18.9492 60.0008 16.4416 62.0797 14.9024C63.545 13.8094 65.8095 13.1211 68.833 13.1211C71.5738 13.1211 73.8384 13.6883 75.4934 14.9024C77.7136 16.5211 78.6097 19.2743 78.6097 24.1305V24.2516H71.477V24.089C71.477 20.772 71.477 18.5445 68.7845 18.5445C66.0921 18.5445 66.0921 20.772 66.0921 23.4007V32.7499C66.0921 35.4616 66.0921 37.6061 68.7845 37.6061C71.477 37.6061 71.5698 35.3786 71.5698 31.5359V31.2938H78.7025V31.4563C78.7025 36.9593 77.7095 39.671 75.5378 41.2517C73.9312 42.4243 71.7111 43.033 68.833 43.033C65.9549 43.033 63.7307 42.4658 62.0797 41.2517V41.2483Z" fill="#448C2F"/>
  <path d="M101.425 13.6094L101.376 16.5632V34.895C101.376 40.1559 97.7392 43.0301 91.5995 43.0301C85.4598 43.0301 81.9156 40.1559 81.9156 34.895V16.5632L81.8672 13.6094H88.9999L88.9515 16.5632V34.3277C88.9515 36.4307 89.6135 37.6067 91.5955 37.6067C93.5775 37.6067 94.3363 36.4342 94.3363 34.3277V16.5632L94.2879 13.6094H101.421H101.425Z" fill="#448C2F"/>
  <path d="M105.812 42.5459L105.861 39.5921V16.5632L105.812 13.6094H115.165C121.636 13.6094 124.801 16.5217 124.801 21.0562V21.1358C124.801 24.1311 123.384 26.0715 120.833 27.2856V27.4481C123.856 28.5411 125.648 30.6441 125.648 33.8816V33.9611C125.648 39.5471 121.963 42.539 115.307 42.539H105.812V42.5459ZM112.848 25.0235H114.455C116.816 25.0235 117.854 23.6469 117.854 21.786V21.5439C117.854 19.6831 116.768 18.6696 114.499 18.6696H112.844V25.0235H112.848ZM114.596 37.4891C117.478 37.4891 118.374 36.1955 118.374 33.8055V33.5633C118.374 31.2978 117.24 30.0423 114.548 30.0423H112.848V37.4891H114.596Z" fill="#448C2F"/>
  <path d="M135.856 30.0803V37.3646H145.068V42.5459H128.82L128.869 39.5921V16.5632L128.82 13.6094H144.878V18.7907H135.856V24.8194H143.13V30.0803H135.856Z" fill="#448C2F"/>
  <path d="M153.426 33.9225C153.991 36.5131 155.267 37.6061 157.297 37.6061C159.094 37.6061 160.083 36.7552 160.083 35.4201C160.083 33.964 158.997 32.6669 156.353 31.1312L152.857 29.1873C149.172 27.0014 147.424 24.3311 147.424 21.1352C147.424 16.4001 151.251 13.1211 157.342 13.1211C162.916 13.1211 166.364 15.9539 166.929 21.1352L160.268 21.6194C159.889 19.6756 159.041 18.5445 157.197 18.5445C155.542 18.5445 154.597 19.4749 154.597 20.8101C154.597 22.3873 155.921 23.4422 158.141 24.7773L161.685 26.7212C165.415 28.8657 167.304 31.6984 167.304 35.14C167.304 40.0377 163.433 43.033 157.386 43.033C151.339 43.033 147.375 39.9581 146.758 34.4136L153.418 33.9294L153.426 33.9225Z" fill="#FFB84C"/>
  <path d="M177.317 30.0803V37.3646H186.529V42.5459H170.281L170.33 39.5921V16.5632L170.281 13.6094H186.339V18.7907H177.317V24.8194H184.591V30.0803H177.317Z" fill="#FFB84C"/>
  <path d="M196.926 30.0803V37.3646H206.138V42.5459H189.891L189.939 39.5921V16.5632L189.891 13.6094H205.948V18.7907H196.926V24.8194H204.2V30.0803H196.926Z" fill="#FFB84C"/>
  <path d="M226.022 15.3492C228.145 16.8468 228.997 19.1124 228.997 23.3218V32.8335C228.997 37.0429 228.145 39.3084 226.022 40.8061C224.323 42.0202 222.151 42.5459 219.503 42.5459H209.492L209.541 39.5921V16.5632L209.492 13.6094H219.503C222.147 13.6094 224.319 14.1351 226.022 15.3492ZM216.528 18.6662V37.4857H218.417C221.202 37.4857 221.864 35.7874 221.864 33.6394V22.5089C221.864 20.6066 221.251 18.6627 218.417 18.6627H216.528V18.6662Z" fill="#FFB84C"/>
</svg>