<svg width="162" height="38" viewBox="0 0 162 38" fill="none" xmlns="http://www.w3.org/2000/svg">
<path d="M0 35.0517L17.6733 37.8779V14.335L0 11.4395V35.0517Z" fill="#448C2F"/>
<path d="M22.1758 28.7877L37.2064 31.19V11.1719L22.1758 8.71094V28.7877Z" fill="#448C2F"/>
<path opacity="0.85" d="M17.6719 14.344L37.2026 11.1738V31.192L17.6719 37.8869V14.344Z" fill="#FFB84C"/>
<path d="M23.657 0.113281C20.0814 0.371907 18.1471 2.46758 17.3848 4.56858C17.9366 5.40311 18.2637 6.30696 18.406 7.15482C20.1867 3.69937 22.8691 0.915823 22.8691 0.915823C22.8691 0.915823 20.4114 3.84069 18.4856 7.90138C18.5055 8.41063 18.4515 8.87722 18.3349 9.27449C21.7711 8.81589 25.8985 4.44859 23.6599 0.113281H23.657Z" fill="#448C2F"/>
<path d="M12.2646 2.57668C12.2646 2.57668 15.3083 6.19744 17.2767 10.9753C13.7637 10.8874 9.1299 6.3121 11.4738 1.77148C18.0448 2.24874 19.083 8.92501 17.4702 10.4448C15.8317 6.27476 12.2618 2.57401 12.2618 2.57401L12.2646 2.57668Z" fill="#448C2F"/>
<path d="M43.7467 31.9104C42.2818 30.7239 41.582 28.7909 41.582 24.3916V19.1204C41.582 14.7211 42.2818 12.7881 43.7467 11.6016C44.7793 10.7591 46.3751 10.2285 48.5057 10.2285C50.4372 10.2285 52.033 10.6658 53.1992 11.6016C54.7637 12.8494 55.3952 14.9718 55.3952 18.7152V18.8085H50.3689V18.6832C50.3689 16.1263 50.3689 14.4092 48.4716 14.4092C46.5742 14.4092 46.5742 16.1262 46.5742 18.1526V25.3594C46.5742 27.4498 46.5742 29.1028 48.4716 29.1028C50.3689 29.1028 50.4343 27.3858 50.4343 24.4236V24.2369H55.4607V24.3623C55.4607 28.6043 54.7609 30.6946 53.2305 31.9131C52.0984 32.8169 50.5339 33.2862 48.5057 33.2862C46.4775 33.2862 44.9102 32.8489 43.7467 31.9131V31.9104Z" fill="#448C2F"/>
<path d="M71.4733 10.6055L71.4392 12.8825V27.0135C71.4392 31.0689 68.8762 33.2845 64.5496 33.2845C60.2231 33.2845 57.7255 31.0689 57.7255 27.0135V12.8825L57.6914 10.6055H62.7177L62.6836 12.8825V26.5763C62.6836 28.1973 63.1501 29.1039 64.5468 29.1039C65.9435 29.1039 66.4783 28.2 66.4783 26.5763V12.8825L66.4441 10.6055H71.4705H71.4733Z" fill="#448C2F"/>
<path d="M74.5664 32.9113L74.6005 30.6343V12.8825L74.5664 10.6055H81.1573C85.7171 10.6055 87.9472 12.8505 87.9472 16.3459V16.4072C87.9472 18.7162 86.9488 20.212 85.151 21.1478V21.2731C87.2816 22.1156 88.5446 23.7367 88.5446 26.2323V26.2936C88.5446 30.5996 85.9475 32.9059 81.2568 32.9059H74.5664V32.9113ZM79.5245 19.4041H80.6566C82.3207 19.4041 83.0517 18.3429 83.0517 16.9085V16.7218C83.0517 15.2874 82.2865 14.5062 80.6879 14.5062H79.5216V19.4041H79.5245ZM80.7562 29.0132C82.7872 29.0132 83.4187 28.016 83.4187 26.1737V25.987C83.4187 24.2406 82.6194 23.2728 80.722 23.2728H79.5245V29.0132H80.7562Z" fill="#448C2F"/>
<path d="M95.7374 23.3021V28.9172H102.229V32.9113H90.7793L90.8134 30.6343V12.8825L90.7793 10.6055H102.095V14.5995H95.7374V19.2468H100.863V23.3021H95.7374Z" fill="#448C2F"/>
<path d="M108.119 26.2633C108.517 28.2603 109.416 29.1028 110.847 29.1028C112.113 29.1028 112.81 28.4469 112.81 27.4178C112.81 26.2953 112.045 25.2955 110.181 24.1116L107.718 22.6132C105.121 20.9282 103.889 18.8698 103.889 16.4062C103.889 12.7561 106.586 10.2285 110.878 10.2285C114.807 10.2285 117.236 12.4122 117.634 16.4062L112.941 16.7795C112.673 15.281 112.076 14.4092 110.776 14.4092C109.61 14.4092 108.944 15.1264 108.944 16.1556C108.944 17.3714 109.877 18.1846 111.442 19.2138L113.939 20.7122C116.567 22.3653 117.899 24.5489 117.899 27.2018C117.899 30.9772 115.171 33.2862 110.91 33.2862C106.649 33.2862 103.855 30.9159 103.42 26.6419L108.113 26.2686L108.119 26.2633Z" fill="#FFB84C"/>
<path d="M124.956 23.3021V28.9172H131.447V32.9113H119.998L120.032 30.6343V12.8825L119.998 10.6055H131.314V14.5995H124.956V19.2468H130.082V23.3021H124.956Z" fill="#FFB84C"/>
<path d="M138.958 23.3021V28.9172H145.449V32.9113H134L134.034 30.6343V12.8825L134 10.6055H145.316V14.5995H138.958V19.2468H144.084V23.3021H138.958Z" fill="#FFB84C"/>
<path d="M159.277 11.9466C160.774 13.1011 161.374 14.8475 161.374 18.0923V25.4244C161.374 28.6693 160.774 30.4157 159.277 31.5701C158.08 32.506 156.549 32.9113 154.683 32.9113H147.629L147.663 30.6343V12.8825L147.629 10.6055H154.683C156.547 10.6055 158.077 11.0107 159.277 11.9466ZM152.587 14.5035V29.0105H153.918C155.881 29.0105 156.347 27.7014 156.347 26.0457V17.4657C156.347 15.9993 155.915 14.5009 153.918 14.5009H152.587V14.5035Z" fill="#FFB84C"/>
</svg>
