<svg width="14" height="14" viewBox="0 0 14 14" fill="none" xmlns="http://www.w3.org/2000/svg">
<path d="M5.02773 8.51562C4.79049 8.51562 4.59115 8.43372 4.42969 8.26992C4.26823 8.10611 4.1875 7.90559 4.1875 7.66836C4.1875 7.43112 4.2694 7.23177 4.4332 7.07031C4.59702 6.90885 4.79754 6.82812 5.03477 6.82812C5.27201 6.82812 5.47135 6.91003 5.63281 7.07383C5.79427 7.23764 5.875 7.43816 5.875 7.67539C5.875 7.91263 5.7931 8.11198 5.6293 8.27344C5.46548 8.4349 5.26496 8.51562 5.02773 8.51562ZM8.98086 8.51562C8.74362 8.51562 8.54427 8.43372 8.38281 8.26992C8.22135 8.10611 8.14062 7.90559 8.14062 7.66836C8.14062 7.43112 8.22253 7.23177 8.38633 7.07031C8.55014 6.90885 8.75066 6.82812 8.98789 6.82812C9.22513 6.82812 9.42448 6.91003 9.58594 7.07383C9.7474 7.23764 9.82812 7.43816 9.82812 7.67539C9.82812 7.91263 9.74622 8.11198 9.58242 8.27344C9.41861 8.4349 9.21809 8.51562 8.98086 8.51562ZM7 12.3125C8.48307 12.3125 9.73926 11.7971 10.7686 10.7664C11.7979 9.73574 12.3125 8.47784 12.3125 6.99273C12.3125 6.72674 12.2917 6.46354 12.25 6.20312C12.2083 5.94271 12.1562 5.70312 12.0938 5.48438C11.8854 5.53646 11.6601 5.57292 11.4178 5.59375C11.1755 5.61458 10.9216 5.625 10.6562 5.625C9.64464 5.625 8.68861 5.41667 7.78817 5C6.88772 4.58333 6.11979 3.98958 5.48438 3.21875C5.13021 4.0625 4.6224 4.79948 3.96094 5.42969C3.29948 6.0599 2.54167 6.54688 1.6875 6.89062V7C1.6875 8.48307 2.20215 9.73926 3.23144 10.7686C4.26074 11.7979 5.51693 12.3125 7 12.3125ZM7 13.25C6.13542 13.25 5.32292 13.0859 4.5625 12.7578C3.80208 12.4297 3.14062 11.9844 2.57812 11.4219C2.01562 10.8594 1.57031 10.1979 1.24219 9.4375C0.914062 8.67708 0.75 7.86458 0.75 7C0.75 6.13542 0.914062 5.32292 1.24219 4.5625C1.57031 3.80208 2.01562 3.14062 2.57812 2.57812C3.14062 2.01562 3.80208 1.57031 4.5625 1.24219C5.32292 0.914062 6.13542 0.75 7 0.75C7.86458 0.75 8.67708 0.914062 9.4375 1.24219C10.1979 1.57031 10.8594 2.01562 11.4219 2.57812C11.9844 3.14062 12.4297 3.80208 12.7578 4.5625C13.0859 5.32292 13.25 6.13542 13.25 7C13.25 7.86458 13.0859 8.67708 12.7578 9.4375C12.4297 10.1979 11.9844 10.8594 11.4219 11.4219C10.8594 11.9844 10.1979 12.4297 9.4375 12.7578C8.67708 13.0859 7.86458 13.25 7 13.25ZM5.5625 1.89062C6.47917 2.96354 7.32552 3.69792 8.10156 4.09375C8.8776 4.48958 9.72917 4.6875 10.6562 4.6875C10.9062 4.6875 11.1042 4.68229 11.25 4.67188C11.3958 4.66146 11.5573 4.63021 11.7344 4.57812C11.2656 3.73438 10.6276 3.04167 9.82031 2.5C9.01302 1.95833 8.07292 1.6875 7 1.6875C6.71875 1.6875 6.45312 1.70833 6.20312 1.75C5.95312 1.79167 5.73958 1.83854 5.5625 1.89062ZM1.82812 5.78125C2.32812 5.59375 2.89844 5.16927 3.53906 4.50781C4.17969 3.84635 4.63542 3.04688 4.90625 2.10938C4 2.51562 3.3151 3.03385 2.85156 3.66406C2.38802 4.29427 2.04688 5 1.82812 5.78125Z" fill="#27797E"/>
</svg>
