<svg xmlns="http://www.w3.org/2000/svg" width="24" height="24" viewBox="0 0 24 24" fill="none">
  <mask id="mask0_3024_22223" style="mask-type:alpha" maskUnits="userSpaceOnUse" x="1" y="0" width="23" height="24">
    <rect x="1" width="22.9565" height="24" fill="#D9D9D9"/>
  </mask>
  <g mask="url(#mask0_3024_22223)">
    <path d="M4.82711 20.0039C4.30102 20.0039 3.85066 19.8081 3.47602 19.4164C3.10138 19.0247 2.91406 18.5539 2.91406 18.0039V6.00391C2.91406 5.45391 3.10138 4.98307 3.47602 4.59141C3.85066 4.19974 4.30102 4.00391 4.82711 4.00391H10.5662L12.4793 6.00391H20.1315C20.6575 6.00391 21.1079 6.19974 21.4825 6.59141C21.8572 6.98307 22.0445 7.45391 22.0445 8.00391V10.8039H20.1315V8.00391H4.82711V18.0039H12.4793V20.0039H4.82711ZM18.5054 14.5289L19.5336 15.6039L15.8271 19.4539V20.5039H16.8315L20.538 16.6539L21.5423 17.7039L17.4293 22.0039H14.3923V18.8289L18.5054 14.5289ZM21.5423 17.7039L18.5054 14.5289L19.8923 13.0789C20.0677 12.8956 20.2909 12.8039 20.5619 12.8039C20.8329 12.8039 21.0561 12.8956 21.2315 13.0789L22.9293 14.8539C23.1046 15.0372 23.1923 15.2706 23.1923 15.5539C23.1923 15.8372 23.1046 16.0706 22.9293 16.2539L21.5423 17.7039Z" fill="#002629"/>
  </g>
</svg>