<svg xmlns="http://www.w3.org/2000/svg" width="24" height="24" viewBox="0 0 24 24" fill="none">
  <mask id="mask0_2246_20413" style="mask-type:alpha" maskUnits="userSpaceOnUse" x="1" y="1" width="22" height="22">
    <rect x="1" y="1" width="22" height="22" fill="#D9D9D9"/>
  </mask>
  <g mask="url(#mask0_2246_20413)">
    <path d="M11.9568 17.4987C12.2776 17.4987 12.5488 17.3879 12.7703 17.1664C12.9918 16.9449 13.1026 16.6737 13.1026 16.3529C13.1026 16.032 12.9918 15.7608 12.7703 15.5393C12.5488 15.3178 12.2776 15.207 11.9568 15.207C11.6359 15.207 11.3648 15.3178 11.1432 15.5393C10.9217 15.7608 10.8109 16.032 10.8109 16.3529C10.8109 16.6737 10.9217 16.9449 11.1432 17.1664C11.3648 17.3879 11.6359 17.4987 11.9568 17.4987ZM11.1318 13.9695H12.8276C12.8276 13.4654 12.8849 13.0681 12.9995 12.7779C13.1141 12.4876 13.4387 12.0904 13.9734 11.5862C14.3707 11.189 14.6839 10.8109 14.913 10.4518C15.1422 10.0928 15.2568 9.6612 15.2568 9.15703C15.2568 8.30148 14.9436 7.64453 14.3172 7.1862C13.6908 6.72786 12.9498 6.4987 12.0943 6.4987C11.2234 6.4987 10.5168 6.72786 9.97448 7.1862C9.43212 7.64453 9.05399 8.19453 8.8401 8.8362L10.3526 9.43203C10.429 9.15703 10.6009 8.85911 10.8682 8.53828C11.1356 8.21745 11.5443 8.05703 12.0943 8.05703C12.5832 8.05703 12.9498 8.19071 13.1943 8.45807C13.4387 8.72543 13.5609 9.01953 13.5609 9.34036C13.5609 9.64592 13.4693 9.93238 13.2859 10.1997C13.1026 10.4671 12.8734 10.7154 12.5984 10.9445C11.9262 11.5404 11.5137 11.9911 11.3609 12.2966C11.2082 12.6022 11.1318 13.1598 11.1318 13.9695ZM12.0026 21.1654C10.7345 21.1654 9.54288 20.9247 8.4276 20.4435C7.31233 19.9622 6.34219 19.3091 5.51719 18.4841C4.69219 17.6591 4.03906 16.689 3.55781 15.5737C3.07656 14.4584 2.83594 13.2668 2.83594 11.9987C2.83594 10.7306 3.07656 9.53898 3.55781 8.4237C4.03906 7.30842 4.69219 6.33828 5.51719 5.51328C6.34219 4.68828 7.31233 4.03516 8.4276 3.55391C9.54288 3.07266 10.7345 2.83203 12.0026 2.83203C13.2707 2.83203 14.4623 3.07266 15.5776 3.55391C16.6929 4.03516 17.663 4.68828 18.488 5.51328C19.313 6.33828 19.9661 7.30842 20.4474 8.4237C20.9286 9.53898 21.1693 10.7306 21.1693 11.9987C21.1693 13.2668 20.9286 14.4584 20.4474 15.5737C19.9661 16.689 19.313 17.6591 18.488 18.4841C17.663 19.3091 16.6929 19.9622 15.5776 20.4435C14.4623 20.9247 13.2707 21.1654 12.0026 21.1654ZM12.0026 19.332C14.0498 19.332 15.7839 18.6216 17.2047 17.2008C18.6255 15.7799 19.3359 14.0459 19.3359 11.9987C19.3359 9.95148 18.6255 8.21745 17.2047 6.79661C15.7839 5.37578 14.0498 4.66536 12.0026 4.66536C9.95538 4.66536 8.22135 5.37578 6.80052 6.79661C5.37969 8.21745 4.66927 9.95148 4.66927 11.9987C4.66927 14.0459 5.37969 15.7799 6.80052 17.2008C8.22135 18.6216 9.95538 19.332 12.0026 19.332Z" fill="#002629"/>
  </g>
</svg>