<svg width="228" height="200" viewBox="0 0 228 200" fill="none" xmlns="http://www.w3.org/2000/svg">
<rect x="195" y="28" width="7.4" height="3" transform="rotate(164 195 28)" fill="#F62584" fill-opacity="0.65"/>
<rect x="63" y="28" width="13.0182" height="5.33147" transform="rotate(-122 63 28)" fill="#9AF5FC" fill-opacity="0.9"/>
<rect x="165.215" y="14.6641" width="9.90093" height="2.93698" transform="rotate(155 165.215 14.6641)" fill="#FC9E1C" fill-opacity="0.85"/>
<rect x="56.8672" y="133.615" width="7.94317" height="4" transform="rotate(33 56.8672 133.615)" fill="#03A3F5" fill-opacity="0.75"/>
<rect x="190" y="53" width="6.80507" height="2" transform="rotate(153 190 53)" fill="#FFED36" fill-opacity="0.65"/>
<rect x="143" y="66" width="2.4" height="4" transform="rotate(-95 143 66)" fill="#9DED1A" fill-opacity="0.35"/>
<rect x="79.5859" y="12.9688" width="7.66928" height="3.71123" transform="rotate(105.155 79.5859 12.9688)" fill="#03A3F5" fill-opacity="0.9"/>
<rect x="61" y="45.9219" width="12.5021" height="5.43687" transform="rotate(-60.875 61 45.9219)" fill="#FC9E1C" fill-opacity="0.6"/>
<rect x="107" y="62" width="6.4" height="3" transform="rotate(-9 107 62)" fill="#C9FCBE" fill-opacity="0.35"/>
<rect x="172" y="118" width="5.4" height="3" transform="rotate(-156 172 118)" fill="#FFED36" fill-opacity="0.75"/>
<rect x="191.953" y="116.375" width="9.28565" height="4.28475" transform="rotate(142 191.953 116.375)" fill="#F62584" fill-opacity="0.65"/>
<rect x="112" y="51" width="6.4" height="3" transform="rotate(25 112 51)" fill="#FF21FB" fill-opacity="0.65"/>
<rect x="185.23" y="85.4219" width="2.4" height="4" transform="rotate(96 185.23 85.4219)" fill="#9DED1A" fill-opacity="0.85"/>
<rect x="15" y="99.8594" width="12.9631" height="4.24764" transform="rotate(-22 15 99.8594)" fill="#F54721" fill-opacity="0.35"/>
<rect x="200" y="81" width="11.4857" height="4.77088" transform="rotate(-131 200 81)" fill="#03A3F5" fill-opacity="0.45"/>
<rect x="112" y="95" width="8.4" height="2" transform="rotate(-64 112 95)" fill="#FFED36" fill-opacity="0.85"/>
<rect x="100" y="30" width="2.75738" height="9.02202" transform="rotate(49 100 30)" fill="#9AF5FC" fill-opacity="0.45"/>
<circle cx="31.5" cy="71.5" r="2.5" fill="#F62584" fill-opacity="0.75"/>
<circle cx="76.5" cy="70.5" r="0.5" fill="#DCBCFA" fill-opacity="0.45"/>
<ellipse cx="167" cy="44.5" rx="2" ry="2.5" fill="#F54721" fill-opacity="0.9"/>
<circle cx="133.5" cy="75.5" r="0.5" fill="#9AF5FC" fill-opacity="0.65"/>
<circle cx="17.5" cy="68.5" r="0.5" fill="#C9FCBE" fill-opacity="0.45"/>
<circle cx="215.5" cy="176.5" r="1.5" fill="#9AF5FC" fill-opacity="0.35"/>
<circle cx="23" cy="38" r="3" fill="#4BC8EF" fill-opacity="0.65"/>
<circle cx="83.5" cy="22.5" r="1.5" fill="#F62584" fill-opacity="0.9"/>
<circle cx="73.5" cy="85.5" r="0.5" fill="#BA3E03" fill-opacity="0.65"/>
<circle cx="18.5" cy="124.5" r="2.5" fill="#DCBCFA" fill-opacity="0.9"/>
<circle cx="127.5" cy="124.5" r="0.5" fill="#4BC8EF" fill-opacity="0.85"/>
<ellipse cx="216.5" cy="46" rx="2.5" ry="3" fill="#9AF5FC"/>
<ellipse cx="161.5" cy="48" rx="2.5" ry="3" fill="#FFED36" fill-opacity="0.35"/>
<circle cx="204.5" cy="124.5" r="2.5" fill="#FF21FB" fill-opacity="0.6"/>
<circle cx="44.5" cy="107.5" r="2.5" fill="#FC9E1C"/>
<circle cx="116.5" cy="132.5" r="0.5" fill="#C9FCBE" fill-opacity="0.85"/>
<path d="M207.942 31.8522L204.422 31.6022L203.333 28.0907L206.18 26.1704L209.028 28.4952L207.942 31.8522Z" fill="#FFED36" fill-opacity="0.45"/>
<path d="M77.5446 136.637L76.8284 134.14L79.3493 134.768L77.5446 136.637Z" fill="#BA3E03" fill-opacity="0.9"/>
<path d="M131.882 51.7865L133.977 51.4546L134.309 53.5498L132.214 53.8817L131.882 51.7865Z" fill="#DCBCFA" fill-opacity="0.6"/>
<path d="M93.2212 16.6117L98.8574 12.6683L99.2387 19.9443L93.2212 16.6117Z" fill="#03A3F5" fill-opacity="0.45"/>
<path d="M33.2245 40.3592L31.2245 36.3592L34.7755 33.6408L36.7755 37.6408L33.2245 40.3592Z" fill="#FC9E1C" fill-opacity="0.9"/>
<path d="M41.7955 44.1342L44.6908 49.2897L40.6697 53.572L35.2894 51.0631L35.9852 45.2302L41.7955 44.1342Z" fill="#4BC8EF" fill-opacity="0.75"/>
<path d="M142.94 28.786L140.171 26.5644L141.511 23.3767L145.108 23.6282L145.991 26.9714L142.94 28.786Z" fill="#FFED36" fill-opacity="0.6"/>
<path d="M162.882 107.342L162.964 104.992L165.224 104.344L166.538 106.293L165.091 108.146L162.882 107.342Z" fill="#F62584" fill-opacity="0.35"/>
<path d="M83.1328 147.283L82.5909 143.862L85.825 145.103L83.1328 147.283Z" fill="#03A3F5" fill-opacity="0.75"/>
<path d="M122.248 9.68873L118.35 14.8502L115.898 8.4611L122.248 9.68873Z" fill="#755FFE" fill-opacity="0.65"/>
<path d="M65.5613 109.611L66.3994 106.249L68.8912 108.656L65.5613 109.611Z" fill="#4BC8EF" fill-opacity="0.75"/>
<path d="M67.3617 94.1472L64.2222 92.6832L67.0598 90.6962L67.3617 94.1472Z" fill="#DCBCFA" fill-opacity="0.35"/>
<path d="M221.182 70.4481L220.949 63.932L226.46 66.6199L221.182 70.4481Z" fill="#9DED1A"/>
<path d="M222.608 101.034L220.108 105.034L215.868 102.966L218.368 98.9663L222.608 101.034Z" fill="#FC9E1C" fill-opacity="0.9"/>
<rect x="10.7969" y="69.4531" width="3.96253" height="10.1412" transform="rotate(104 10.7969 69.4531)" fill="#FFD601" fill-opacity="0.65"/>
<path d="M4.53219 95.8379L1.69213 95.2121L1.09989 92.1597L3.57391 90.8992L5.69519 93.1724L4.53219 95.8379Z" fill="#9DED1A" fill-opacity="0.65"/>
<mask id="mask0_4467_39221" style="mask-type:alpha" maskUnits="userSpaceOnUse" x="41" y="26" width="146" height="141">
<rect x="41" y="26" width="146" height="141" fill="#D9D9D9"/>
</mask>
<g mask="url(#mask0_4467_39221)">
<path d="M105.485 123.527L148.372 82.1087L139.855 73.8837L105.485 107.077L88.1471 90.3337L79.6305 98.5587L105.485 123.527ZM114.001 155.252C105.586 155.252 97.6777 153.71 90.2763 150.626C82.8749 147.542 76.4367 143.356 70.9617 138.068C65.4867 132.781 61.1523 126.563 57.9586 119.415C54.7648 112.267 53.168 104.63 53.168 96.5024C53.168 88.3754 54.7648 80.7379 57.9586 73.5899C61.1523 66.442 65.4867 60.2243 70.9617 54.9368C76.4367 49.6493 82.8749 45.4634 90.2763 42.379C97.6777 39.2946 105.586 37.7524 114.001 37.7524C122.417 37.7524 130.325 39.2946 137.726 42.379C145.128 45.4634 151.566 49.6493 157.041 54.9368C162.516 60.2243 166.85 66.442 170.044 73.5899C173.238 80.7379 174.835 88.3754 174.835 96.5024C174.835 104.63 173.238 112.267 170.044 119.415C166.85 126.563 162.516 132.781 157.041 138.068C151.566 143.356 145.128 147.542 137.726 150.626C130.325 153.71 122.417 155.252 114.001 155.252Z" fill="#45DFA9"/>
</g>
</svg>
