<svg width="12" height="14" viewBox="0 0 12 14" fill="none" xmlns="http://www.w3.org/2000/svg">
<path d="M1.3125 13.25C1.0625 13.25 0.84375 13.1562 0.65625 12.9688C0.46875 12.7812 0.375 12.5625 0.375 12.3125V2.625C0.375 2.375 0.46875 2.15625 0.65625 1.96875C0.84375 1.78125 1.0625 1.6875 1.3125 1.6875H2.32812V0.75H3.34375V1.6875H8.65625V0.75H9.67188V1.6875H10.6875C10.9375 1.6875 11.1562 1.78125 11.3438 1.96875C11.5312 2.15625 11.625 2.375 11.625 2.625V12.3125C11.625 12.5625 11.5312 12.7812 11.3438 12.9688C11.1562 13.1562 10.9375 13.25 10.6875 13.25H1.3125ZM1.3125 12.3125H10.6875V5.59375H1.3125V12.3125ZM1.3125 4.65625H10.6875V2.625H1.3125V4.65625ZM6 8.25C5.82292 8.25 5.67448 8.1901 5.55469 8.07031C5.4349 7.95052 5.375 7.80208 5.375 7.625C5.375 7.44792 5.4349 7.29948 5.55469 7.17969C5.67448 7.0599 5.82292 7 6 7C6.17708 7 6.32552 7.0599 6.44531 7.17969C6.5651 7.29948 6.625 7.44792 6.625 7.625C6.625 7.80208 6.5651 7.95052 6.44531 8.07031C6.32552 8.1901 6.17708 8.25 6 8.25ZM3.5 8.25C3.32292 8.25 3.17448 8.1901 3.05469 8.07031C2.9349 7.95052 2.875 7.80208 2.875 7.625C2.875 7.44792 2.9349 7.29948 3.05469 7.17969C3.17448 7.0599 3.32292 7 3.5 7C3.67708 7 3.82552 7.0599 3.94531 7.17969C4.0651 7.29948 4.125 7.44792 4.125 7.625C4.125 7.80208 4.0651 7.95052 3.94531 8.07031C3.82552 8.1901 3.67708 8.25 3.5 8.25ZM8.5 8.25C8.32292 8.25 8.17448 8.1901 8.05469 8.07031C7.9349 7.95052 7.875 7.80208 7.875 7.625C7.875 7.44792 7.9349 7.29948 8.05469 7.17969C8.17448 7.0599 8.32292 7 8.5 7C8.67708 7 8.82552 7.0599 8.94531 7.17969C9.0651 7.29948 9.125 7.44792 9.125 7.625C9.125 7.80208 9.0651 7.95052 8.94531 8.07031C8.82552 8.1901 8.67708 8.25 8.5 8.25ZM6 10.75C5.82292 10.75 5.67448 10.6901 5.55469 10.5703C5.4349 10.4505 5.375 10.3021 5.375 10.125C5.375 9.94792 5.4349 9.79948 5.55469 9.67969C5.67448 9.5599 5.82292 9.5 6 9.5C6.17708 9.5 6.32552 9.5599 6.44531 9.67969C6.5651 9.79948 6.625 9.94792 6.625 10.125C6.625 10.3021 6.5651 10.4505 6.44531 10.5703C6.32552 10.6901 6.17708 10.75 6 10.75ZM3.5 10.75C3.32292 10.75 3.17448 10.6901 3.05469 10.5703C2.9349 10.4505 2.875 10.3021 2.875 10.125C2.875 9.94792 2.9349 9.79948 3.05469 9.67969C3.17448 9.5599 3.32292 9.5 3.5 9.5C3.67708 9.5 3.82552 9.5599 3.94531 9.67969C4.0651 9.79948 4.125 9.94792 4.125 10.125C4.125 10.3021 4.0651 10.4505 3.94531 10.5703C3.82552 10.6901 3.67708 10.75 3.5 10.75ZM8.5 10.75C8.32292 10.75 8.17448 10.6901 8.05469 10.5703C7.9349 10.4505 7.875 10.3021 7.875 10.125C7.875 9.94792 7.9349 9.79948 8.05469 9.67969C8.17448 9.5599 8.32292 9.5 8.5 9.5C8.67708 9.5 8.82552 9.5599 8.94531 9.67969C9.0651 9.79948 9.125 9.94792 9.125 10.125C9.125 10.3021 9.0651 10.4505 8.94531 10.5703C8.82552 10.6901 8.67708 10.75 8.5 10.75Z" fill="#27797E"/>
</svg>
