<svg width="30" height="30" viewBox="0 0 30 30" fill="none" xmlns="http://www.w3.org/2000/svg">
<mask id="mask0_20460_13745" style="mask-type:alpha" maskUnits="userSpaceOnUse" x="3" y="3" width="24" height="24">
<rect x="3" y="3" width="24" height="24" fill="#D9D9D9"/>
</mask>
<g mask="url(#mask0_20460_13745)">
<path d="M8.85 20.102C9.7 19.452 10.65 18.9395 11.7 18.5645C12.75 18.1895 13.85 18.002 15 18.002C16.15 18.002 17.25 18.1895 18.3 18.5645C19.35 18.9395 20.3 19.452 21.15 20.102C21.7333 19.4186 22.1875 18.6436 22.5125 17.777C22.8375 16.9103 23 15.9853 23 15.002C23 12.7853 22.2208 10.8978 20.6625 9.33945C19.1042 7.78112 17.2167 7.00195 15 7.00195C12.7833 7.00195 10.8958 7.78112 9.3375 9.33945C7.77917 10.8978 7 12.7853 7 15.002C7 15.9853 7.1625 16.9103 7.4875 17.777C7.8125 18.6436 8.26667 19.4186 8.85 20.102ZM15 16.002C14.0167 16.002 13.1875 15.6645 12.5125 14.9895C11.8375 14.3145 11.5 13.4853 11.5 12.502C11.5 11.5186 11.8375 10.6895 12.5125 10.0145C13.1875 9.33945 14.0167 9.00195 15 9.00195C15.9833 9.00195 16.8125 9.33945 17.4875 10.0145C18.1625 10.6895 18.5 11.5186 18.5 12.502C18.5 13.4853 18.1625 14.3145 17.4875 14.9895C16.8125 15.6645 15.9833 16.002 15 16.002ZM15 25.002C13.6167 25.002 12.3167 24.7395 11.1 24.2145C9.88333 23.6895 8.825 22.977 7.925 22.077C7.025 21.177 6.3125 20.1186 5.7875 18.902C5.2625 17.6853 5 16.3853 5 15.002C5 13.6186 5.2625 12.3186 5.7875 11.102C6.3125 9.88529 7.025 8.82695 7.925 7.92695C8.825 7.02695 9.88333 6.31445 11.1 5.78945C12.3167 5.26445 13.6167 5.00195 15 5.00195C16.3833 5.00195 17.6833 5.26445 18.9 5.78945C20.1167 6.31445 21.175 7.02695 22.075 7.92695C22.975 8.82695 23.6875 9.88529 24.2125 11.102C24.7375 12.3186 25 13.6186 25 15.002C25 16.3853 24.7375 17.6853 24.2125 18.902C23.6875 20.1186 22.975 21.177 22.075 22.077C21.175 22.977 20.1167 23.6895 18.9 24.2145C17.6833 24.7395 16.3833 25.002 15 25.002Z" fill="#03656B"/>
</g>
</svg>
