<svg xmlns="http://www.w3.org/2000/svg" width="22" height="22" viewBox="0 0 22 22" fill="none">
  <path fill-rule="evenodd" clip-rule="evenodd" d="M14.0379 19.2775C13.9462 19.9008 13.3779 20.3958 12.6995 20.3958H9.30788C8.62955 20.3958 8.06121 19.9008 7.97871 19.2316L7.73121 17.4991C7.48371 17.3708 7.24538 17.2333 7.00705 17.0774L5.35705 17.7374C4.71538 17.9758 4.00955 17.71 3.69788 17.1416L2.02038 14.2358C1.69955 13.6308 1.83705 12.9158 2.35038 12.5124L3.75288 11.4216C3.74371 11.2841 3.73455 11.1466 3.73455 10.9999C3.73455 10.8624 3.74371 10.7158 3.75288 10.5783L2.35955 9.48745C1.81871 9.07495 1.68121 8.33245 2.02038 7.76412L3.71621 4.83995C4.02788 4.27161 4.73371 4.01495 5.35705 4.26245L7.01621 4.93161C7.25455 4.77578 7.49288 4.63828 7.73121 4.50995L7.97871 2.75911C8.06121 2.11745 8.62955 1.61328 9.29871 1.61328H12.6904C13.3687 1.61328 13.937 2.10828 14.0195 2.77745L14.267 4.50995C14.5145 4.63828 14.7529 4.77578 14.9912 4.93161L16.6412 4.27161C17.292 4.03328 17.9979 4.29911 18.3095 4.86745L19.9962 7.78245C20.3262 8.38745 20.1795 9.10245 19.6662 9.50578L18.2729 10.5966C18.282 10.7341 18.2912 10.8716 18.2912 11.0183C18.2912 11.1649 18.282 11.3024 18.2729 11.4399L19.6662 12.5308C20.1795 12.9433 20.3262 13.6583 20.0054 14.2358L18.3004 17.1874C17.9887 17.7558 17.2829 18.0125 16.6504 17.7649L15.0004 17.1049C14.762 17.2608 14.5237 17.3983 14.2854 17.5266L14.0379 19.2775ZM9.73871 18.5624H12.2687L12.6079 16.2249L13.0937 16.0233C13.497 15.8583 13.9004 15.6199 14.322 15.3083L14.7345 14.9966L16.9162 15.8766L18.1812 13.6766L16.3204 12.2283L16.3845 11.7149L16.3874 11.6903C16.4139 11.4608 16.4395 11.2389 16.4395 10.9999C16.4395 10.7524 16.412 10.5141 16.3845 10.2849L16.3204 9.77162L18.1812 8.32328L16.907 6.12328L14.7162 7.00328L14.3037 6.68245C13.9187 6.38911 13.5062 6.15078 13.0845 5.97661L12.6079 5.77495L12.2687 3.43745H9.73871L9.39955 5.77495L8.91371 5.96745C8.51038 6.14161 8.10705 6.37078 7.68538 6.69162L7.27288 6.99411L5.09121 6.12328L3.81705 8.31412L5.67788 9.76245L5.61371 10.2758C5.58621 10.5141 5.55871 10.7616 5.55871 10.9999C5.55871 11.2383 5.57705 11.4858 5.61371 11.7149L5.67788 12.2283L3.81705 13.6766L5.08205 15.8766L7.27288 14.9966L7.68538 15.3174C8.07955 15.6199 8.47371 15.8491 8.90455 16.0233L9.39038 16.2249L9.73871 18.5624ZM14.212 10.9999C14.212 12.7719 12.7756 14.2083 11.0037 14.2083C9.2318 14.2083 7.79538 12.7719 7.79538 10.9999C7.79538 9.22803 9.2318 7.79162 11.0037 7.79162C12.7756 7.79162 14.212 9.22803 14.212 10.9999Z" fill="#002629"/>
</svg>