<svg width="24" height="24" viewBox="0 0 24 24" fill="none" xmlns="http://www.w3.org/2000/svg">
<mask id="mask0_16747_16683" style="mask-type:alpha" maskUnits="userSpaceOnUse" x="0" y="0" width="24" height="24">
<rect width="24" height="24" fill="#D9D9D9"/>
</mask>
<g mask="url(#mask0_16747_16683)">
<path d="M5.85098 17.102C6.70098 16.452 7.65098 15.9395 8.70098 15.5645C9.75098 15.1895 10.851 15.002 12.001 15.002C13.151 15.002 14.251 15.1895 15.301 15.5645C16.351 15.9395 17.301 16.452 18.151 17.102C18.7343 16.4186 19.1885 15.6436 19.5135 14.777C19.8385 13.9103 20.001 12.9853 20.001 12.002C20.001 9.78529 19.2218 7.89779 17.6635 6.33945C16.1051 4.78112 14.2176 4.00195 12.001 4.00195C9.78431 4.00195 7.89681 4.78112 6.33848 6.33945C4.78014 7.89779 4.00098 9.78529 4.00098 12.002C4.00098 12.9853 4.16348 13.9103 4.48848 14.777C4.81348 15.6436 5.26764 16.4186 5.85098 17.102ZM12.001 13.002C11.0176 13.002 10.1885 12.6645 9.51348 11.9895C8.83848 11.3145 8.50098 10.4853 8.50098 9.50195C8.50098 8.51862 8.83848 7.68945 9.51348 7.01445C10.1885 6.33945 11.0176 6.00195 12.001 6.00195C12.9843 6.00195 13.8135 6.33945 14.4885 7.01445C15.1635 7.68945 15.501 8.51862 15.501 9.50195C15.501 10.4853 15.1635 11.3145 14.4885 11.9895C13.8135 12.6645 12.9843 13.002 12.001 13.002ZM12.001 22.002C10.6176 22.002 9.31764 21.7395 8.10098 21.2145C6.88431 20.6895 5.82598 19.977 4.92598 19.077C4.02598 18.177 3.31348 17.1186 2.78848 15.902C2.26348 14.6853 2.00098 13.3853 2.00098 12.002C2.00098 10.6186 2.26348 9.31862 2.78848 8.10195C3.31348 6.88529 4.02598 5.82695 4.92598 4.92695C5.82598 4.02695 6.88431 3.31445 8.10098 2.78945C9.31764 2.26445 10.6176 2.00195 12.001 2.00195C13.3843 2.00195 14.6843 2.26445 15.901 2.78945C17.1176 3.31445 18.176 4.02695 19.076 4.92695C19.976 5.82695 20.6885 6.88529 21.2135 8.10195C21.7385 9.31862 22.001 10.6186 22.001 12.002C22.001 13.3853 21.7385 14.6853 21.2135 15.902C20.6885 17.1186 19.976 18.177 19.076 19.077C18.176 19.977 17.1176 20.6895 15.901 21.2145C14.6843 21.7395 13.3843 22.002 12.001 22.002Z" fill="#03656B"/>
</g>
</svg>
