<svg width="24" height="24" viewBox="0 0 24 24" fill="none" xmlns="http://www.w3.org/2000/svg">
<mask id="mask0_5682_66669" style="mask-type:alpha" maskUnits="userSpaceOnUse" x="1" y="0" width="23" height="24">
<rect x="1" width="22.9565" height="24" fill="#D9D9D9"/>
</mask>
<g mask="url(#mask0_5682_66669)">
<path d="M4.82613 20.002C4.30004 20.002 3.84968 19.8061 3.47504 19.4145C3.1004 19.0228 2.91309 18.552 2.91309 18.002V6.00195C2.91309 5.45195 3.1004 4.98112 3.47504 4.58945C3.84968 4.19779 4.30004 4.00195 4.82613 4.00195H10.5653L12.4783 6.00195H20.1305C20.6566 6.00195 21.1069 6.19779 21.4816 6.58945C21.8562 6.98112 22.0435 7.45195 22.0435 8.00195V10.802H20.1305V8.00195H4.82613V18.002H12.4783V20.002H4.82613ZM18.5044 14.527L19.5326 15.602L15.8261 19.452V20.502H16.8305L20.537 16.652L21.5413 17.702L17.4283 22.002H14.3913V18.827L18.5044 14.527ZM21.5413 17.702L18.5044 14.527L19.8913 13.077C20.0667 12.8936 20.2899 12.802 20.5609 12.802C20.8319 12.802 21.0551 12.8936 21.2305 13.077L22.9283 14.852C23.1037 15.0353 23.1913 15.2686 23.1913 15.552C23.1913 15.8353 23.1037 16.0686 22.9283 16.252L21.5413 17.702Z" fill="#002629"/>
</g>
</svg>
