<svg width="24" height="24" viewBox="0 0 24 24" fill="none" xmlns="http://www.w3.org/2000/svg">
<mask id="mask0_16747_16678" style="mask-type:alpha" maskUnits="userSpaceOnUse" x="0" y="0" width="24" height="24">
<rect width="24" height="24" fill="#D9D9D9"/>
</mask>
<g mask="url(#mask0_16747_16678)">
<path d="M2.00098 22.002V4.00195C2.00098 3.45195 2.19681 2.98112 2.58848 2.58945C2.98014 2.19779 3.45098 2.00195 4.00098 2.00195H20.001C20.551 2.00195 21.0218 2.19779 21.4135 2.58945C21.8051 2.98112 22.001 3.45195 22.001 4.00195V16.002C22.001 16.552 21.8051 17.0228 21.4135 17.4145C21.0218 17.8061 20.551 18.002 20.001 18.002H6.00098L2.00098 22.002ZM4.00098 17.177L5.17598 16.002H20.001V4.00195H4.00098V17.177Z" fill="#03656B"/>
</g>
</svg>
