<svg width="20" height="26" viewBox="0 0 20 26" fill="none" xmlns="http://www.w3.org/2000/svg">
<path d="M0 21.75V19.25H2.5V10.5C2.5 8.77083 3.02083 7.23438 4.0625 5.89062C5.10417 4.54688 6.45833 3.66667 8.125 3.25V2.375C8.125 1.85417 8.30729 1.41146 8.67188 1.04688C9.03646 0.682292 9.47917 0.5 10 0.5C10.5208 0.5 10.9635 0.682292 11.3281 1.04688C11.6927 1.41146 11.875 1.85417 11.875 2.375V3.25C13.5417 3.66667 14.8958 4.54688 15.9375 5.89062C16.9792 7.23438 17.5 8.77083 17.5 10.5V19.25H20V21.75H0ZM10 25.5C9.3125 25.5 8.72396 25.2552 8.23438 24.7656C7.74479 24.276 7.5 23.6875 7.5 23H12.5C12.5 23.6875 12.2552 24.276 11.7656 24.7656C11.276 25.2552 10.6875 25.5 10 25.5ZM5 19.25H15V10.5C15 9.125 14.5104 7.94792 13.5312 6.96875C12.5521 5.98958 11.375 5.5 10 5.5C8.625 5.5 7.44792 5.98958 6.46875 6.96875C5.48958 7.94792 5 9.125 5 10.5V19.25Z" fill="#03656B"/>
</svg>
