<svg width="19" height="26" viewBox="0 0 19 26" fill="none" xmlns="http://www.w3.org/2000/svg">
<path fill-rule="evenodd" clip-rule="evenodd" d="M0 9.34771C0 4.17976 4.17976 0 9.34771 0C14.5157 0 18.6954 4.17976 18.6954 9.34771C18.6954 14.9163 12.793 22.5948 10.376 25.5193C9.84181 26.1602 8.86697 26.1602 8.33282 25.5193C5.90241 22.5948 0 14.9163 0 9.34771ZM6.00928 9.34766C6.00928 11.1905 7.50492 12.6861 9.34775 12.6861C11.1906 12.6861 12.6862 11.1905 12.6862 9.34766C12.6862 7.50483 11.1906 6.00919 9.34775 6.00919C7.50492 6.00919 6.00928 7.50483 6.00928 9.34766Z" fill="#51A1A6"/>
</svg>
