<svg width="24" height="24" viewBox="0 0 24 24" fill="none" xmlns="http://www.w3.org/2000/svg">
<path fill-rule="evenodd" clip-rule="evenodd" d="M15.3102 21.0298C15.2102 21.7098 14.5902 22.2498 13.8502 22.2498H10.1502C9.41023 22.2498 8.79023 21.7098 8.70023 20.9798L8.43023 19.0898C8.16023 18.9498 7.90023 18.7998 7.64023 18.6298L5.84023 19.3498C5.14023 19.6098 4.37023 19.3198 4.03023 18.6998L2.20023 15.5298C1.85023 14.8698 2.00023 14.0898 2.56023 13.6498L4.09023 12.4598C4.08023 12.3098 4.07023 12.1598 4.07023 11.9998C4.07023 11.8498 4.08023 11.6898 4.09023 11.5398L2.57023 10.3498C1.98023 9.89977 1.83023 9.08977 2.20023 8.46977L4.05023 5.27977C4.39023 4.65977 5.16023 4.37977 5.84023 4.64977L7.65023 5.37977C7.91023 5.20977 8.17023 5.05977 8.43023 4.91977L8.70023 3.00977C8.79023 2.30977 9.41023 1.75977 10.1402 1.75977H13.8402C14.5802 1.75977 15.2002 2.29977 15.2902 3.02977L15.5602 4.91977C15.8302 5.05977 16.0902 5.20977 16.3502 5.37977L18.1502 4.65977C18.8602 4.39977 19.6302 4.68977 19.9702 5.30977L21.8102 8.48977C22.1702 9.14977 22.0102 9.92977 21.4502 10.3698L19.9302 11.5598C19.9402 11.7098 19.9502 11.8598 19.9502 12.0198C19.9502 12.1798 19.9402 12.3298 19.9302 12.4798L21.4502 13.6698C22.0102 14.1198 22.1702 14.8998 21.8202 15.5298L19.9602 18.7498C19.6202 19.3698 18.8502 19.6498 18.1602 19.3798L16.3602 18.6598C16.1002 18.8298 15.8402 18.9798 15.5802 19.1198L15.3102 21.0298ZM10.6202 20.2498H13.3802L13.7502 17.6998L14.2802 17.4798C14.7202 17.2998 15.1602 17.0398 15.6202 16.6998L16.0702 16.3598L18.4502 17.3198L19.8302 14.9198L17.8002 13.3398L17.8702 12.7798L17.8733 12.7528C17.9023 12.5025 17.9302 12.2604 17.9302 11.9998C17.9302 11.7298 17.9002 11.4698 17.8702 11.2198L17.8002 10.6598L19.8302 9.07977L18.4402 6.67977L16.0502 7.63977L15.6002 7.28977C15.1802 6.96977 14.7302 6.70977 14.2702 6.51977L13.7502 6.29977L13.3802 3.74977H10.6202L10.2502 6.29977L9.72023 6.50977C9.28023 6.69977 8.84023 6.94977 8.38023 7.29977L7.93023 7.62977L5.55023 6.67977L4.16023 9.06977L6.19023 10.6498L6.12023 11.2098C6.09023 11.4698 6.06023 11.7398 6.06023 11.9998C6.06023 12.2598 6.08023 12.5298 6.12023 12.7798L6.19023 13.3398L4.16023 14.9198L5.54023 17.3198L7.93023 16.3598L8.38023 16.7098C8.81023 17.0398 9.24023 17.2898 9.71023 17.4798L10.2402 17.6998L10.6202 20.2498ZM15.5002 11.9998C15.5002 13.9328 13.9332 15.4998 12.0002 15.4998C10.0672 15.4998 8.50023 13.9328 8.50023 11.9998C8.50023 10.0668 10.0672 8.49977 12.0002 8.49977C13.9332 8.49977 15.5002 10.0668 15.5002 11.9998Z" fill="#002629"/>
</svg>
