<svg width="26" height="26" viewBox="0 0 26 26" fill="none" xmlns="http://www.w3.org/2000/svg">
<path d="M24.2233 6.67882V3.51215C24.2233 1.98437 23.0391 0.734375 21.5917 0.734375H3.17064C1.71012 0.734375 0.539062 1.98437 0.539062 3.51215V22.9566C0.539062 24.4844 1.71012 25.7344 3.17064 25.7344H21.5917C23.0391 25.7344 24.2233 24.4844 24.2233 22.9566V19.7899C24.9996 19.3038 25.5391 18.4288 25.5391 17.401V9.06771C25.5391 8.03993 24.9996 7.16493 24.2233 6.67882ZM22.9075 9.06771V17.401H13.697V9.06771H22.9075ZM3.17064 22.9566V3.51215H21.5917V6.28993H13.697C12.2496 6.28993 11.0654 7.53993 11.0654 9.06771V17.401C11.0654 18.9288 12.2496 20.1788 13.697 20.1788H21.5917V22.9566H3.17064Z" fill="#03656B"/>
<path d="M17.6443 15.3177C18.7344 15.3177 19.618 14.385 19.618 13.2344C19.618 12.0838 18.7344 11.151 17.6443 11.151C16.5543 11.151 15.6706 12.0838 15.6706 13.2344C15.6706 14.385 16.5543 15.3177 17.6443 15.3177Z" fill="#03656B"/>
</svg>
