<svg width="15" height="16" viewBox="0 0 15 16" fill="none" xmlns="http://www.w3.org/2000/svg">
<path d="M2.8125 14.25C2.5625 14.25 2.34375 14.1562 2.15625 13.9688C1.96875 13.7812 1.875 13.5625 1.875 13.3125V3.625C1.875 3.375 1.96875 3.15625 2.15625 2.96875C2.34375 2.78125 2.5625 2.6875 2.8125 2.6875H3.82812V1.75H4.84375V2.6875H10.1562V1.75H11.1719V2.6875H12.1875C12.4375 2.6875 12.6562 2.78125 12.8438 2.96875C13.0312 3.15625 13.125 3.375 13.125 3.625V13.3125C13.125 13.5625 13.0312 13.7812 12.8438 13.9688C12.6562 14.1562 12.4375 14.25 12.1875 14.25H2.8125ZM2.8125 13.3125H12.1875V6.59375H2.8125V13.3125ZM2.8125 5.65625H12.1875V3.625H2.8125V5.65625ZM7.5 9.25C7.32292 9.25 7.17448 9.1901 7.05469 9.07031C6.9349 8.95052 6.875 8.80208 6.875 8.625C6.875 8.44792 6.9349 8.29948 7.05469 8.17969C7.17448 8.0599 7.32292 8 7.5 8C7.67708 8 7.82552 8.0599 7.94531 8.17969C8.0651 8.29948 8.125 8.44792 8.125 8.625C8.125 8.80208 8.0651 8.95052 7.94531 9.07031C7.82552 9.1901 7.67708 9.25 7.5 9.25ZM5 9.25C4.82292 9.25 4.67448 9.1901 4.55469 9.07031C4.4349 8.95052 4.375 8.80208 4.375 8.625C4.375 8.44792 4.4349 8.29948 4.55469 8.17969C4.67448 8.0599 4.82292 8 5 8C5.17708 8 5.32552 8.0599 5.44531 8.17969C5.5651 8.29948 5.625 8.44792 5.625 8.625C5.625 8.80208 5.5651 8.95052 5.44531 9.07031C5.32552 9.1901 5.17708 9.25 5 9.25ZM10 9.25C9.82292 9.25 9.67448 9.1901 9.55469 9.07031C9.4349 8.95052 9.375 8.80208 9.375 8.625C9.375 8.44792 9.4349 8.29948 9.55469 8.17969C9.67448 8.0599 9.82292 8 10 8C10.1771 8 10.3255 8.0599 10.4453 8.17969C10.5651 8.29948 10.625 8.44792 10.625 8.625C10.625 8.80208 10.5651 8.95052 10.4453 9.07031C10.3255 9.1901 10.1771 9.25 10 9.25ZM7.5 11.75C7.32292 11.75 7.17448 11.6901 7.05469 11.5703C6.9349 11.4505 6.875 11.3021 6.875 11.125C6.875 10.9479 6.9349 10.7995 7.05469 10.6797C7.17448 10.5599 7.32292 10.5 7.5 10.5C7.67708 10.5 7.82552 10.5599 7.94531 10.6797C8.0651 10.7995 8.125 10.9479 8.125 11.125C8.125 11.3021 8.0651 11.4505 7.94531 11.5703C7.82552 11.6901 7.67708 11.75 7.5 11.75ZM5 11.75C4.82292 11.75 4.67448 11.6901 4.55469 11.5703C4.4349 11.4505 4.375 11.3021 4.375 11.125C4.375 10.9479 4.4349 10.7995 4.55469 10.6797C4.67448 10.5599 4.82292 10.5 5 10.5C5.17708 10.5 5.32552 10.5599 5.44531 10.6797C5.5651 10.7995 5.625 10.9479 5.625 11.125C5.625 11.3021 5.5651 11.4505 5.44531 11.5703C5.32552 11.6901 5.17708 11.75 5 11.75ZM10 11.75C9.82292 11.75 9.67448 11.6901 9.55469 11.5703C9.4349 11.4505 9.375 11.3021 9.375 11.125C9.375 10.9479 9.4349 10.7995 9.55469 10.6797C9.67448 10.5599 9.82292 10.5 10 10.5C10.1771 10.5 10.3255 10.5599 10.4453 10.6797C10.5651 10.7995 10.625 10.9479 10.625 11.125C10.625 11.3021 10.5651 11.4505 10.4453 11.5703C10.3255 11.6901 10.1771 11.75 10 11.75Z" fill="#27797E"/>
</svg>
