<svg width="30" height="30" viewBox="0 0 30 30" fill="none" xmlns="http://www.w3.org/2000/svg">
<mask id="mask0_4205_35506" style="mask-type:alpha" maskUnits="userSpaceOnUse" x="0" y="0" width="30" height="30">
<rect width="30" height="30" fill="#D9D9D9"/>
</mask>
<g mask="url(#mask0_4205_35506)">
<path d="M2.5 27.5V5C2.5 4.3125 2.74479 3.72396 3.23438 3.23438C3.72396 2.74479 4.3125 2.5 5 2.5H25C25.6875 2.5 26.276 2.74479 26.7656 3.23438C27.2552 3.72396 27.5 4.3125 27.5 5V20C27.5 20.6875 27.2552 21.276 26.7656 21.7656C26.276 22.2552 25.6875 22.5 25 22.5H7.5L2.5 27.5ZM5 21.4688L6.46875 20H25V5H5V21.4688Z" fill="#03656B"/>
</g>
</svg>
