<svg width="30" height="30" viewBox="0 0 30 30" fill="none" xmlns="http://www.w3.org/2000/svg">
<mask id="mask0_4205_35503" style="mask-type:alpha" maskUnits="userSpaceOnUse" x="0" y="0" width="30" height="30">
<rect width="30" height="30" fill="#D9D9D9"/>
</mask>
<g mask="url(#mask0_4205_35503)">
<path d="M7.3125 21.375C8.375 20.5625 9.5625 19.9219 10.875 19.4531C12.1875 18.9844 13.5625 18.75 15 18.75C16.4375 18.75 17.8125 18.9844 19.125 19.4531C20.4375 19.9219 21.625 20.5625 22.6875 21.375C23.4167 20.5208 23.9844 19.5521 24.3906 18.4688C24.7969 17.3854 25 16.2292 25 15C25 12.2292 24.026 9.86979 22.0781 7.92188C20.1302 5.97396 17.7708 5 15 5C12.2292 5 9.86979 5.97396 7.92188 7.92188C5.97396 9.86979 5 12.2292 5 15C5 16.2292 5.20312 17.3854 5.60938 18.4688C6.01562 19.5521 6.58333 20.5208 7.3125 21.375ZM15 16.25C13.7708 16.25 12.7344 15.8281 11.8906 14.9844C11.0469 14.1406 10.625 13.1042 10.625 11.875C10.625 10.6458 11.0469 9.60938 11.8906 8.76563C12.7344 7.92188 13.7708 7.5 15 7.5C16.2292 7.5 17.2656 7.92188 18.1094 8.76563C18.9531 9.60938 19.375 10.6458 19.375 11.875C19.375 13.1042 18.9531 14.1406 18.1094 14.9844C17.2656 15.8281 16.2292 16.25 15 16.25ZM15 27.5C13.2708 27.5 11.6458 27.1719 10.125 26.5156C8.60417 25.8594 7.28125 24.9688 6.15625 23.8438C5.03125 22.7188 4.14063 21.3958 3.48438 19.875C2.82812 18.3542 2.5 16.7292 2.5 15C2.5 13.2708 2.82812 11.6458 3.48438 10.125C4.14063 8.60417 5.03125 7.28125 6.15625 6.15625C7.28125 5.03125 8.60417 4.14063 10.125 3.48438C11.6458 2.82812 13.2708 2.5 15 2.5C16.7292 2.5 18.3542 2.82812 19.875 3.48438C21.3958 4.14063 22.7188 5.03125 23.8438 6.15625C24.9688 7.28125 25.8594 8.60417 26.5156 10.125C27.1719 11.6458 27.5 13.2708 27.5 15C27.5 16.7292 27.1719 18.3542 26.5156 19.875C25.8594 21.3958 24.9688 22.7188 23.8438 23.8438C22.7188 24.9688 21.3958 25.8594 19.875 26.5156C18.3542 27.1719 16.7292 27.5 15 27.5Z" fill="#03656B"/>
</g>
</svg>
