<svg width="15" height="16" viewBox="0 0 15 16" fill="none" xmlns="http://www.w3.org/2000/svg">
<path d="M5.52773 9.51562C5.29049 9.51562 5.09115 9.43372 4.92969 9.26992C4.76823 9.10611 4.6875 8.90559 4.6875 8.66836C4.6875 8.43112 4.7694 8.23177 4.9332 8.07031C5.09702 7.90885 5.29754 7.82812 5.53477 7.82812C5.77201 7.82812 5.97135 7.91003 6.13281 8.07383C6.29427 8.23764 6.375 8.43816 6.375 8.67539C6.375 8.91263 6.2931 9.11198 6.1293 9.27344C5.96548 9.4349 5.76496 9.51562 5.52773 9.51562ZM9.48086 9.51562C9.24362 9.51562 9.04427 9.43372 8.88281 9.26992C8.72135 9.10611 8.64062 8.90559 8.64062 8.66836C8.64062 8.43112 8.72253 8.23177 8.88633 8.07031C9.05014 7.90885 9.25066 7.82812 9.48789 7.82812C9.72513 7.82812 9.92448 7.91003 10.0859 8.07383C10.2474 8.23764 10.3281 8.43816 10.3281 8.67539C10.3281 8.91263 10.2462 9.11198 10.0824 9.27344C9.91861 9.4349 9.71809 9.51562 9.48086 9.51562ZM7.5 13.3125C8.98307 13.3125 10.2393 12.7971 11.2686 11.7664C12.2979 10.7357 12.8125 9.47784 12.8125 7.99273C12.8125 7.72674 12.7917 7.46354 12.75 7.20312C12.7083 6.94271 12.6562 6.70312 12.5938 6.48438C12.3854 6.53646 12.1601 6.57292 11.9178 6.59375C11.6755 6.61458 11.4216 6.625 11.1562 6.625C10.1446 6.625 9.18861 6.41667 8.28817 6C7.38772 5.58333 6.61979 4.98958 5.98438 4.21875C5.63021 5.0625 5.1224 5.79948 4.46094 6.42969C3.79948 7.0599 3.04167 7.54688 2.1875 7.89062V8C2.1875 9.48307 2.70215 10.7393 3.73144 11.7686C4.76074 12.7979 6.01693 13.3125 7.5 13.3125ZM7.5 14.25C6.63542 14.25 5.82292 14.0859 5.0625 13.7578C4.30208 13.4297 3.64062 12.9844 3.07812 12.4219C2.51562 11.8594 2.07031 11.1979 1.74219 10.4375C1.41406 9.67708 1.25 8.86458 1.25 8C1.25 7.13542 1.41406 6.32292 1.74219 5.5625C2.07031 4.80208 2.51562 4.14062 3.07812 3.57812C3.64062 3.01562 4.30208 2.57031 5.0625 2.24219C5.82292 1.91406 6.63542 1.75 7.5 1.75C8.36458 1.75 9.17708 1.91406 9.9375 2.24219C10.6979 2.57031 11.3594 3.01562 11.9219 3.57812C12.4844 4.14062 12.9297 4.80208 13.2578 5.5625C13.5859 6.32292 13.75 7.13542 13.75 8C13.75 8.86458 13.5859 9.67708 13.2578 10.4375C12.9297 11.1979 12.4844 11.8594 11.9219 12.4219C11.3594 12.9844 10.6979 13.4297 9.9375 13.7578C9.17708 14.0859 8.36458 14.25 7.5 14.25ZM6.0625 2.89062C6.97917 3.96354 7.82552 4.69792 8.60156 5.09375C9.3776 5.48958 10.2292 5.6875 11.1562 5.6875C11.4062 5.6875 11.6042 5.68229 11.75 5.67188C11.8958 5.66146 12.0573 5.63021 12.2344 5.57812C11.7656 4.73438 11.1276 4.04167 10.3203 3.5C9.51302 2.95833 8.57292 2.6875 7.5 2.6875C7.21875 2.6875 6.95312 2.70833 6.70312 2.75C6.45312 2.79167 6.23958 2.83854 6.0625 2.89062ZM2.32812 6.78125C2.82812 6.59375 3.39844 6.16927 4.03906 5.50781C4.67969 4.84635 5.13542 4.04688 5.40625 3.10938C4.5 3.51562 3.8151 4.03385 3.35156 4.66406C2.88802 5.29427 2.54688 6 2.32812 6.78125Z" fill="#27797E"/>
</svg>
